<svg xmlns="http://www.w3.org/2000/svg" width="24" height="24" fill="none" viewBox="0 0 24 24" id="youtube-gaming"><path fill="#EE4D4D" d="M5.85557 4.33965C5.62768 4.21694 5.35262 4.2204 5.1279 4.34882L1.6279 6.34882C1.39421 6.48235 1.25 6.73086 1.25 7V14.5C1.25 14.7951 1.42309 15.0628 1.69223 15.1839L11.6922 19.6839C11.888 19.772 12.112 19.772 12.3078 19.6839L22.3078 15.1839C22.5769 15.0628 22.75 14.7951 22.75 14.5V7C22.75 6.73086 22.6058 6.48235 22.3721 6.34882L18.8721 4.34882C18.6474 4.2204 18.3723 4.21694 18.1444 4.33965L12 7.64818L5.85557 4.33965Z"></path><path fill="#ECEFF1" fill-rule="evenodd" d="M22.75 7.26308V6.99999C22.75 6.73085 22.6058 6.48234 22.3721 6.34881L18.8721 4.34881C18.6474 4.22039 18.3723 4.21693 18.1444 4.33964L17.75 4.55202V11C17.75 11.3125 17.9437 11.5922 18.2362 11.7021C18.5287 11.812 18.8587 11.729 19.0644 11.4939L22.5644 7.49388C22.5717 7.48558 22.5788 7.47713 22.5857 7.46852L22.75 7.26308Z" clip-rule="evenodd"></path></svg>